<svg version="1.1" xmlns="http://www.w3.org/2000/svg" width="74px" height="74px" viewBox="0 0 74 74"  preserveAspectRatio="xMinYMin meet"><rect width="100%" height="100%" fill="white" cx="0" cy="0"/><path d="M8,8l2,0 0,2 -2,0 0,-2z M10,8l2,0 0,2 -2,0 0,-2z M12,8l2,0 0,2 -2,0 0,-2z M14,8l2,0 0,2 -2,0 0,-2z M16,8l2,0 0,2 -2,0 0,-2z M18,8l2,0 0,2 -2,0 0,-2z M20,8l2,0 0,2 -2,0 0,-2z M26,8l2,0 0,2 -2,0 0,-2z M32,8l2,0 0,2 -2,0 0,-2z M38,8l2,0 0,2 -2,0 0,-2z M42,8l2,0 0,2 -2,0 0,-2z M44,8l2,0 0,2 -2,0 0,-2z M46,8l2,0 0,2 -2,0 0,-2z M52,8l2,0 0,2 -2,0 0,-2z M54,8l2,0 0,2 -2,0 0,-2z M56,8l2,0 0,2 -2,0 0,-2z M58,8l2,0 0,2 -2,0 0,-2z M60,8l2,0 0,2 -2,0 0,-2z M62,8l2,0 0,2 -2,0 0,-2z M64,8l2,0 0,2 -2,0 0,-2z M8,10l2,0 0,2 -2,0 0,-2z M20,10l2,0 0,2 -2,0 0,-2z M28,10l2,0 0,2 -2,0 0,-2z M30,10l2,0 0,2 -2,0 0,-2z M32,10l2,0 0,2 -2,0 0,-2z M36,10l2,0 0,2 -2,0 0,-2z M38,10l2,0 0,2 -2,0 0,-2z M42,10l2,0 0,2 -2,0 0,-2z M44,10l2,0 0,2 -2,0 0,-2z M46,10l2,0 0,2 -2,0 0,-2z M48,10l2,0 0,2 -2,0 0,-2z M52,10l2,0 0,2 -2,0 0,-2z M64,10l2,0 0,2 -2,0 0,-2z M8,12l2,0 0,2 -2,0 0,-2z M12,12l2,0 0,2 -2,0 0,-2z M14,12l2,0 0,2 -2,0 0,-2z M16,12l2,0 0,2 -2,0 0,-2z M20,12l2,0 0,2 -2,0 0,-2z M24,12l2,0 0,2 -2,0 0,-2z M26,12l2,0 0,2 -2,0 0,-2z M28,12l2,0 0,2 -2,0 0,-2z M32,12l2,0 0,2 -2,0 0,-2z M36,12l2,0 0,2 -2,0 0,-2z M38,12l2,0 0,2 -2,0 0,-2z M46,12l2,0 0,2 -2,0 0,-2z M52,12l2,0 0,2 -2,0 0,-2z M56,12l2,0 0,2 -2,0 0,-2z M58,12l2,0 0,2 -2,0 0,-2z M60,12l2,0 0,2 -2,0 0,-2z M64,12l2,0 0,2 -2,0 0,-2z M8,14l2,0 0,2 -2,0 0,-2z M12,14l2,0 0,2 -2,0 0,-2z M14,14l2,0 0,2 -2,0 0,-2z M16,14l2,0 0,2 -2,0 0,-2z M20,14l2,0 0,2 -2,0 0,-2z M26,14l2,0 0,2 -2,0 0,-2z M28,14l2,0 0,2 -2,0 0,-2z M30,14l2,0 0,2 -2,0 0,-2z M36,14l2,0 0,2 -2,0 0,-2z M38,14l2,0 0,2 -2,0 0,-2z M40,14l2,0 0,2 -2,0 0,-2z M52,14l2,0 0,2 -2,0 0,-2z M56,14l2,0 0,2 -2,0 0,-2z M58,14l2,0 0,2 -2,0 0,-2z M60,14l2,0 0,2 -2,0 0,-2z M64,14l2,0 0,2 -2,0 0,-2z M8,16l2,0 0,2 -2,0 0,-2z M12,16l2,0 0,2 -2,0 0,-2z M14,16l2,0 0,2 -2,0 0,-2z M16,16l2,0 0,2 -2,0 0,-2z M20,16l2,0 0,2 -2,0 0,-2z M28,16l2,0 0,2 -2,0 0,-2z M38,16l2,0 0,2 -2,0 0,-2z M42,16l2,0 0,2 -2,0 0,-2z M46,16l2,0 0,2 -2,0 0,-2z M52,16l2,0 0,2 -2,0 0,-2z M56,16l2,0 0,2 -2,0 0,-2z M58,16l2,0 0,2 -2,0 0,-2z M60,16l2,0 0,2 -2,0 0,-2z M64,16l2,0 0,2 -2,0 0,-2z M8,18l2,0 0,2 -2,0 0,-2z M20,18l2,0 0,2 -2,0 0,-2z M26,18l2,0 0,2 -2,0 0,-2z M36,18l2,0 0,2 -2,0 0,-2z M38,18l2,0 0,2 -2,0 0,-2z M40,18l2,0 0,2 -2,0 0,-2z M44,18l2,0 0,2 -2,0 0,-2z M46,18l2,0 0,2 -2,0 0,-2z M48,18l2,0 0,2 -2,0 0,-2z M52,18l2,0 0,2 -2,0 0,-2z M64,18l2,0 0,2 -2,0 0,-2z M8,20l2,0 0,2 -2,0 0,-2z M10,20l2,0 0,2 -2,0 0,-2z M12,20l2,0 0,2 -2,0 0,-2z M14,20l2,0 0,2 -2,0 0,-2z M16,20l2,0 0,2 -2,0 0,-2z M18,20l2,0 0,2 -2,0 0,-2z M20,20l2,0 0,2 -2,0 0,-2z M24,20l2,0 0,2 -2,0 0,-2z M28,20l2,0 0,2 -2,0 0,-2z M32,20l2,0 0,2 -2,0 0,-2z M36,20l2,0 0,2 -2,0 0,-2z M40,20l2,0 0,2 -2,0 0,-2z M44,20l2,0 0,2 -2,0 0,-2z M48,20l2,0 0,2 -2,0 0,-2z M52,20l2,0 0,2 -2,0 0,-2z M54,20l2,0 0,2 -2,0 0,-2z M56,20l2,0 0,2 -2,0 0,-2z M58,20l2,0 0,2 -2,0 0,-2z M60,20l2,0 0,2 -2,0 0,-2z M62,20l2,0 0,2 -2,0 0,-2z M64,20l2,0 0,2 -2,0 0,-2z M24,22l2,0 0,2 -2,0 0,-2z M26,22l2,0 0,2 -2,0 0,-2z M28,22l2,0 0,2 -2,0 0,-2z M32,22l2,0 0,2 -2,0 0,-2z M34,22l2,0 0,2 -2,0 0,-2z M38,22l2,0 0,2 -2,0 0,-2z M40,22l2,0 0,2 -2,0 0,-2z M42,22l2,0 0,2 -2,0 0,-2z M44,22l2,0 0,2 -2,0 0,-2z M8,24l2,0 0,2 -2,0 0,-2z M10,24l2,0 0,2 -2,0 0,-2z M12,24l2,0 0,2 -2,0 0,-2z M16,24l2,0 0,2 -2,0 0,-2z M18,24l2,0 0,2 -2,0 0,-2z M20,24l2,0 0,2 -2,0 0,-2z M22,24l2,0 0,2 -2,0 0,-2z M24,24l2,0 0,2 -2,0 0,-2z M28,24l2,0 0,2 -2,0 0,-2z M30,24l2,0 0,2 -2,0 0,-2z M36,24l2,0 0,2 -2,0 0,-2z M38,24l2,0 0,2 -2,0 0,-2z M42,24l2,0 0,2 -2,0 0,-2z M48,24l2,0 0,2 -2,0 0,-2z M50,24l2,0 0,2 -2,0 0,-2z M52,24l2,0 0,2 -2,0 0,-2z M60,24l2,0 0,2 -2,0 0,-2z M8,26l2,0 0,2 -2,0 0,-2z M10,26l2,0 0,2 -2,0 0,-2z M16,26l2,0 0,2 -2,0 0,-2z M18,26l2,0 0,2 -2,0 0,-2z M22,26l2,0 0,2 -2,0 0,-2z M28,26l2,0 0,2 -2,0 0,-2z M30,26l2,0 0,2 -2,0 0,-2z M42,26l2,0 0,2 -2,0 0,-2z M44,26l2,0 0,2 -2,0 0,-2z M48,26l2,0 0,2 -2,0 0,-2z M50,26l2,0 0,2 -2,0 0,-2z M52,26l2,0 0,2 -2,0 0,-2z M58,26l2,0 0,2 -2,0 0,-2z M64,26l2,0 0,2 -2,0 0,-2z M8,28l2,0 0,2 -2,0 0,-2z M10,28l2,0 0,2 -2,0 0,-2z M12,28l2,0 0,2 -2,0 0,-2z M14,28l2,0 0,2 -2,0 0,-2z M16,28l2,0 0,2 -2,0 0,-2z M20,28l2,0 0,2 -2,0 0,-2z M22,28l2,0 0,2 -2,0 0,-2z M24,28l2,0 0,2 -2,0 0,-2z M26,28l2,0 0,2 -2,0 0,-2z M34,28l2,0 0,2 -2,0 0,-2z M48,28l2,0 0,2 -2,0 0,-2z M50,28l2,0 0,2 -2,0 0,-2z M52,28l2,0 0,2 -2,0 0,-2z M60,28l2,0 0,2 -2,0 0,-2z M62,28l2,0 0,2 -2,0 0,-2z M64,28l2,0 0,2 -2,0 0,-2z M10,30l2,0 0,2 -2,0 0,-2z M12,30l2,0 0,2 -2,0 0,-2z M22,30l2,0 0,2 -2,0 0,-2z M30,30l2,0 0,2 -2,0 0,-2z M38,30l2,0 0,2 -2,0 0,-2z M40,30l2,0 0,2 -2,0 0,-2z M42,30l2,0 0,2 -2,0 0,-2z M44,30l2,0 0,2 -2,0 0,-2z M48,30l2,0 0,2 -2,0 0,-2z M56,30l2,0 0,2 -2,0 0,-2z M62,30l2,0 0,2 -2,0 0,-2z M10,32l2,0 0,2 -2,0 0,-2z M16,32l2,0 0,2 -2,0 0,-2z M20,32l2,0 0,2 -2,0 0,-2z M32,32l2,0 0,2 -2,0 0,-2z M38,32l2,0 0,2 -2,0 0,-2z M40,32l2,0 0,2 -2,0 0,-2z M42,32l2,0 0,2 -2,0 0,-2z M46,32l2,0 0,2 -2,0 0,-2z M48,32l2,0 0,2 -2,0 0,-2z M50,32l2,0 0,2 -2,0 0,-2z M52,32l2,0 0,2 -2,0 0,-2z M58,32l2,0 0,2 -2,0 0,-2z M62,32l2,0 0,2 -2,0 0,-2z M64,32l2,0 0,2 -2,0 0,-2z M8,34l2,0 0,2 -2,0 0,-2z M14,34l2,0 0,2 -2,0 0,-2z M16,34l2,0 0,2 -2,0 0,-2z M18,34l2,0 0,2 -2,0 0,-2z M22,34l2,0 0,2 -2,0 0,-2z M24,34l2,0 0,2 -2,0 0,-2z M30,34l2,0 0,2 -2,0 0,-2z M32,34l2,0 0,2 -2,0 0,-2z M34,34l2,0 0,2 -2,0 0,-2z M40,34l2,0 0,2 -2,0 0,-2z M42,34l2,0 0,2 -2,0 0,-2z M44,34l2,0 0,2 -2,0 0,-2z M52,34l2,0 0,2 -2,0 0,-2z M54,34l2,0 0,2 -2,0 0,-2z M58,34l2,0 0,2 -2,0 0,-2z M64,34l2,0 0,2 -2,0 0,-2z M12,36l2,0 0,2 -2,0 0,-2z M14,36l2,0 0,2 -2,0 0,-2z M20,36l2,0 0,2 -2,0 0,-2z M22,36l2,0 0,2 -2,0 0,-2z M24,36l2,0 0,2 -2,0 0,-2z M26,36l2,0 0,2 -2,0 0,-2z M28,36l2,0 0,2 -2,0 0,-2z M30,36l2,0 0,2 -2,0 0,-2z M32,36l2,0 0,2 -2,0 0,-2z M36,36l2,0 0,2 -2,0 0,-2z M54,36l2,0 0,2 -2,0 0,-2z M58,36l2,0 0,2 -2,0 0,-2z M62,36l2,0 0,2 -2,0 0,-2z M64,36l2,0 0,2 -2,0 0,-2z M10,38l2,0 0,2 -2,0 0,-2z M16,38l2,0 0,2 -2,0 0,-2z M22,38l2,0 0,2 -2,0 0,-2z M32,38l2,0 0,2 -2,0 0,-2z M34,38l2,0 0,2 -2,0 0,-2z M36,38l2,0 0,2 -2,0 0,-2z M38,38l2,0 0,2 -2,0 0,-2z M40,38l2,0 0,2 -2,0 0,-2z M42,38l2,0 0,2 -2,0 0,-2z M46,38l2,0 0,2 -2,0 0,-2z M48,38l2,0 0,2 -2,0 0,-2z M50,38l2,0 0,2 -2,0 0,-2z M58,38l2,0 0,2 -2,0 0,-2z M62,38l2,0 0,2 -2,0 0,-2z M8,40l2,0 0,2 -2,0 0,-2z M10,40l2,0 0,2 -2,0 0,-2z M12,40l2,0 0,2 -2,0 0,-2z M14,40l2,0 0,2 -2,0 0,-2z M20,40l2,0 0,2 -2,0 0,-2z M24,40l2,0 0,2 -2,0 0,-2z M26,40l2,0 0,2 -2,0 0,-2z M30,40l2,0 0,2 -2,0 0,-2z M36,40l2,0 0,2 -2,0 0,-2z M42,40l2,0 0,2 -2,0 0,-2z M48,40l2,0 0,2 -2,0 0,-2z M50,40l2,0 0,2 -2,0 0,-2z M52,40l2,0 0,2 -2,0 0,-2z M54,40l2,0 0,2 -2,0 0,-2z M58,40l2,0 0,2 -2,0 0,-2z M62,40l2,0 0,2 -2,0 0,-2z M64,40l2,0 0,2 -2,0 0,-2z M10,42l2,0 0,2 -2,0 0,-2z M18,42l2,0 0,2 -2,0 0,-2z M22,42l2,0 0,2 -2,0 0,-2z M26,42l2,0 0,2 -2,0 0,-2z M30,42l2,0 0,2 -2,0 0,-2z M36,42l2,0 0,2 -2,0 0,-2z M40,42l2,0 0,2 -2,0 0,-2z M48,42l2,0 0,2 -2,0 0,-2z M50,42l2,0 0,2 -2,0 0,-2z M52,42l2,0 0,2 -2,0 0,-2z M58,42l2,0 0,2 -2,0 0,-2z M60,42l2,0 0,2 -2,0 0,-2z M64,42l2,0 0,2 -2,0 0,-2z M8,44l2,0 0,2 -2,0 0,-2z M14,44l2,0 0,2 -2,0 0,-2z M18,44l2,0 0,2 -2,0 0,-2z M20,44l2,0 0,2 -2,0 0,-2z M24,44l2,0 0,2 -2,0 0,-2z M26,44l2,0 0,2 -2,0 0,-2z M34,44l2,0 0,2 -2,0 0,-2z M48,44l2,0 0,2 -2,0 0,-2z M52,44l2,0 0,2 -2,0 0,-2z M54,44l2,0 0,2 -2,0 0,-2z M62,44l2,0 0,2 -2,0 0,-2z M64,44l2,0 0,2 -2,0 0,-2z M10,46l2,0 0,2 -2,0 0,-2z M18,46l2,0 0,2 -2,0 0,-2z M22,46l2,0 0,2 -2,0 0,-2z M24,46l2,0 0,2 -2,0 0,-2z M28,46l2,0 0,2 -2,0 0,-2z M30,46l2,0 0,2 -2,0 0,-2z M38,46l2,0 0,2 -2,0 0,-2z M42,46l2,0 0,2 -2,0 0,-2z M44,46l2,0 0,2 -2,0 0,-2z M46,46l2,0 0,2 -2,0 0,-2z M48,46l2,0 0,2 -2,0 0,-2z M58,46l2,0 0,2 -2,0 0,-2z M62,46l2,0 0,2 -2,0 0,-2z M8,48l2,0 0,2 -2,0 0,-2z M14,48l2,0 0,2 -2,0 0,-2z M16,48l2,0 0,2 -2,0 0,-2z M20,48l2,0 0,2 -2,0 0,-2z M22,48l2,0 0,2 -2,0 0,-2z M24,48l2,0 0,2 -2,0 0,-2z M26,48l2,0 0,2 -2,0 0,-2z M28,48l2,0 0,2 -2,0 0,-2z M32,48l2,0 0,2 -2,0 0,-2z M38,48l2,0 0,2 -2,0 0,-2z M40,48l2,0 0,2 -2,0 0,-2z M46,48l2,0 0,2 -2,0 0,-2z M48,48l2,0 0,2 -2,0 0,-2z M50,48l2,0 0,2 -2,0 0,-2z M52,48l2,0 0,2 -2,0 0,-2z M54,48l2,0 0,2 -2,0 0,-2z M56,48l2,0 0,2 -2,0 0,-2z M24,50l2,0 0,2 -2,0 0,-2z M28,50l2,0 0,2 -2,0 0,-2z M30,50l2,0 0,2 -2,0 0,-2z M32,50l2,0 0,2 -2,0 0,-2z M34,50l2,0 0,2 -2,0 0,-2z M40,50l2,0 0,2 -2,0 0,-2z M44,50l2,0 0,2 -2,0 0,-2z M46,50l2,0 0,2 -2,0 0,-2z M48,50l2,0 0,2 -2,0 0,-2z M56,50l2,0 0,2 -2,0 0,-2z M60,50l2,0 0,2 -2,0 0,-2z M62,50l2,0 0,2 -2,0 0,-2z M64,50l2,0 0,2 -2,0 0,-2z M8,52l2,0 0,2 -2,0 0,-2z M10,52l2,0 0,2 -2,0 0,-2z M12,52l2,0 0,2 -2,0 0,-2z M14,52l2,0 0,2 -2,0 0,-2z M16,52l2,0 0,2 -2,0 0,-2z M18,52l2,0 0,2 -2,0 0,-2z M20,52l2,0 0,2 -2,0 0,-2z M24,52l2,0 0,2 -2,0 0,-2z M26,52l2,0 0,2 -2,0 0,-2z M28,52l2,0 0,2 -2,0 0,-2z M30,52l2,0 0,2 -2,0 0,-2z M32,52l2,0 0,2 -2,0 0,-2z M36,52l2,0 0,2 -2,0 0,-2z M40,52l2,0 0,2 -2,0 0,-2z M42,52l2,0 0,2 -2,0 0,-2z M46,52l2,0 0,2 -2,0 0,-2z M48,52l2,0 0,2 -2,0 0,-2z M52,52l2,0 0,2 -2,0 0,-2z M56,52l2,0 0,2 -2,0 0,-2z M58,52l2,0 0,2 -2,0 0,-2z M62,52l2,0 0,2 -2,0 0,-2z M64,52l2,0 0,2 -2,0 0,-2z M8,54l2,0 0,2 -2,0 0,-2z M20,54l2,0 0,2 -2,0 0,-2z M24,54l2,0 0,2 -2,0 0,-2z M32,54l2,0 0,2 -2,0 0,-2z M34,54l2,0 0,2 -2,0 0,-2z M36,54l2,0 0,2 -2,0 0,-2z M38,54l2,0 0,2 -2,0 0,-2z M40,54l2,0 0,2 -2,0 0,-2z M42,54l2,0 0,2 -2,0 0,-2z M44,54l2,0 0,2 -2,0 0,-2z M48,54l2,0 0,2 -2,0 0,-2z M56,54l2,0 0,2 -2,0 0,-2z M58,54l2,0 0,2 -2,0 0,-2z M62,54l2,0 0,2 -2,0 0,-2z M64,54l2,0 0,2 -2,0 0,-2z M8,56l2,0 0,2 -2,0 0,-2z M12,56l2,0 0,2 -2,0 0,-2z M14,56l2,0 0,2 -2,0 0,-2z M16,56l2,0 0,2 -2,0 0,-2z M20,56l2,0 0,2 -2,0 0,-2z M24,56l2,0 0,2 -2,0 0,-2z M26,56l2,0 0,2 -2,0 0,-2z M30,56l2,0 0,2 -2,0 0,-2z M36,56l2,0 0,2 -2,0 0,-2z M40,56l2,0 0,2 -2,0 0,-2z M42,56l2,0 0,2 -2,0 0,-2z M48,56l2,0 0,2 -2,0 0,-2z M50,56l2,0 0,2 -2,0 0,-2z M52,56l2,0 0,2 -2,0 0,-2z M54,56l2,0 0,2 -2,0 0,-2z M56,56l2,0 0,2 -2,0 0,-2z M62,56l2,0 0,2 -2,0 0,-2z M64,56l2,0 0,2 -2,0 0,-2z M8,58l2,0 0,2 -2,0 0,-2z M12,58l2,0 0,2 -2,0 0,-2z M14,58l2,0 0,2 -2,0 0,-2z M16,58l2,0 0,2 -2,0 0,-2z M20,58l2,0 0,2 -2,0 0,-2z M28,58l2,0 0,2 -2,0 0,-2z M30,58l2,0 0,2 -2,0 0,-2z M36,58l2,0 0,2 -2,0 0,-2z M40,58l2,0 0,2 -2,0 0,-2z M46,58l2,0 0,2 -2,0 0,-2z M56,58l2,0 0,2 -2,0 0,-2z M60,58l2,0 0,2 -2,0 0,-2z M62,58l2,0 0,2 -2,0 0,-2z M64,58l2,0 0,2 -2,0 0,-2z M8,60l2,0 0,2 -2,0 0,-2z M12,60l2,0 0,2 -2,0 0,-2z M14,60l2,0 0,2 -2,0 0,-2z M16,60l2,0 0,2 -2,0 0,-2z M20,60l2,0 0,2 -2,0 0,-2z M24,60l2,0 0,2 -2,0 0,-2z M28,60l2,0 0,2 -2,0 0,-2z M34,60l2,0 0,2 -2,0 0,-2z M48,60l2,0 0,2 -2,0 0,-2z M54,60l2,0 0,2 -2,0 0,-2z M56,60l2,0 0,2 -2,0 0,-2z M58,60l2,0 0,2 -2,0 0,-2z M64,60l2,0 0,2 -2,0 0,-2z M8,62l2,0 0,2 -2,0 0,-2z M20,62l2,0 0,2 -2,0 0,-2z M24,62l2,0 0,2 -2,0 0,-2z M30,62l2,0 0,2 -2,0 0,-2z M38,62l2,0 0,2 -2,0 0,-2z M40,62l2,0 0,2 -2,0 0,-2z M42,62l2,0 0,2 -2,0 0,-2z M44,62l2,0 0,2 -2,0 0,-2z M48,62l2,0 0,2 -2,0 0,-2z M52,62l2,0 0,2 -2,0 0,-2z M56,62l2,0 0,2 -2,0 0,-2z M62,62l2,0 0,2 -2,0 0,-2z M8,64l2,0 0,2 -2,0 0,-2z M10,64l2,0 0,2 -2,0 0,-2z M12,64l2,0 0,2 -2,0 0,-2z M14,64l2,0 0,2 -2,0 0,-2z M16,64l2,0 0,2 -2,0 0,-2z M18,64l2,0 0,2 -2,0 0,-2z M20,64l2,0 0,2 -2,0 0,-2z M24,64l2,0 0,2 -2,0 0,-2z M26,64l2,0 0,2 -2,0 0,-2z M28,64l2,0 0,2 -2,0 0,-2z M32,64l2,0 0,2 -2,0 0,-2z M40,64l2,0 0,2 -2,0 0,-2z M42,64l2,0 0,2 -2,0 0,-2z M46,64l2,0 0,2 -2,0 0,-2z M48,64l2,0 0,2 -2,0 0,-2z M50,64l2,0 0,2 -2,0 0,-2z M52,64l2,0 0,2 -2,0 0,-2z M54,64l2,0 0,2 -2,0 0,-2z M56,64l2,0 0,2 -2,0 0,-2z M58,64l2,0 0,2 -2,0 0,-2z M62,64l2,0 0,2 -2,0 0,-2z M64,64l2,0 0,2 -2,0 0,-2z " stroke="transparent" fill="black"/></svg>