<?xml version="1.0" standalone="no"?>
<!DOCTYPE svg PUBLIC "-//W3C//DTD SVG 20010904//EN"
 "http://www.w3.org/TR/2001/REC-SVG-20010904/DTD/svg10.dtd">
<svg version="1.0" xmlns="http://www.w3.org/2000/svg"
 width="512.000000pt" height="512.000000pt" viewBox="0 0 512.000000 512.000000"
 preserveAspectRatio="xMidYMid meet">
<metadata>
Created by potrace 1.14, written by Peter Selinger 2001-2017
</metadata>
<g transform="translate(0.000000,512.000000) scale(0.100000,-0.100000)"
fill="#000000" stroke="none">
<path d="M1855 4466 c-41 -18 -73 -56 -85 -97 -6 -19 -10 -153 -10 -306 l1
-272 28 -38 c39 -53 76 -71 138 -69 56 1 91 21 127 70 20 26 21 40 21 326 0
286 -1 300 -21 326 -11 15 -32 37 -46 47 -34 25 -113 32 -153 13z"/>
<path d="M2698 4187 c-40 -17 -408 -386 -424 -424 -18 -43 -18 -95 2 -136 33
-69 132 -105 204 -74 20 9 120 99 228 204 203 198 223 227 216 300 -10 104
-130 172 -226 130z"/>
<path d="M1025 4176 c-78 -35 -116 -131 -82 -209 17 -39 375 -397 414 -413 75
-32 152 -7 200 65 27 40 31 107 9 149 -20 38 -380 395 -413 409 -37 16 -91 15
-128 -1z"/>
<path d="M735 3346 c-102 -45 -124 -191 -40 -265 19 -16 49 -33 67 -36 18 -4
155 -5 304 -3 l271 3 37 29 c90 68 86 190 -8 260 -26 20 -42 21 -314 23 -224
2 -294 0 -317 -11z"/>
<path d="M1852 3344 c-45 -23 -80 -67 -88 -111 -8 -42 5 -90 86 -313 57 -158
108 -301 224 -630 42 -118 80 -224 85 -235 5 -11 28 -74 51 -140 23 -66 61
-174 85 -240 24 -66 91 -255 150 -420 136 -385 133 -376 158 -404 26 -28 76
-51 111 -51 42 0 101 29 124 60 17 23 63 157 87 250 4 17 147 518 172 603 9
31 19 57 22 57 3 0 255 -250 560 -555 401 -401 564 -558 589 -566 79 -26 177
21 202 97 13 38 9 98 -8 129 -5 11 -258 267 -561 570 -302 302 -547 553 -543
556 4 3 102 32 217 63 116 32 221 62 235 67 14 5 34 11 45 13 11 2 63 16 115
31 52 15 129 36 170 47 98 26 134 49 160 103 23 47 23 96 0 146 -23 50 -101
86 -475 219 -203 72 -392 140 -420 150 -27 10 -153 56 -280 100 -126 45 -284
101 -350 125 -66 23 -223 80 -350 125 -126 45 -279 99 -340 121 -132 49 -187
56 -233 33z"/>
<path d="M1344 2831 c-17 -10 -115 -104 -218 -207 -198 -200 -216 -226 -201
-297 10 -47 41 -92 72 -106 43 -19 112 -22 152 -5 45 18 397 366 417 411 36
82 -4 183 -84 214 -39 15 -105 10 -138 -10z"/>
</g>
</svg>
